#N canvas 25 676 1680 864 10;
#X obj 129 384 noise~;
#X obj 186 384 line~;
#X obj 129 438 *~;
#X obj 135 925 *~ 0;
#X obj 194 936 hsl 128 15 0 1 0 0 empty empty Volume_0-1 -2 -6 0 8
#fcfcfc #000000 #000000 0 1;
#X msg 186 356 1 \, 0 50;
#X obj 222 202 bng 15 250 50 0 empty empty empty 0 -6 0 8 #e8e828 #000000
#000000;
#X obj 222 -166 tgl 15 0 empty empty empty 17 7 0 10 #fcfcfc #000000
#000000 0 1;
#X floatatom 416 -180 5 0 0 0 - - - 0;
#X obj 356 -87 bng 15 250 50 0 empty empty empty 17 7 0 10 #fcfcfc
#000000 #000000;
#X obj 366 -233 loadbang;
#X obj 412 -58 + 1;
#X floatatom 347 -25 5 0 0 0 - - - 0;
#X floatatom 347 74 5 0 0 0 - - - 0;
#X text 451 -58 Sequence adds 1;
#X text 404 -27 modulo mathmatical function;
#X text 392 10 Divides count by number of total steps is remainder
is step count;
#X obj 273 146 bng 15 250 50 0 empty empty empty 17 7 0 10 #fcfcfc
#000000 #000000;
#X obj 308 145 bng 15 250 50 0 empty empty empty 17 7 0 10 #fcfcfc
#000000 #000000;
#X obj 342 147 bng 15 250 50 0 empty empty empty 17 7 0 10 #fcfcfc
#000000 #000000;
#X msg 434 -137 tempo \$1 permin;
#X obj 233 145 bng 15 250 50 0 empty empty empty 17 7 0 10 #fcfcfc
#000000 #000000;
#X obj 354 -123 metro;
#X obj 347 38 + 1;
#X obj 347 7 % 8;
#X obj 313 106 select 1 2 3 4 5 6 7 8;
#X obj 390 148 bng 15 250 50 0 empty empty empty 17 7 0 10 #fcfcfc
#000000 #000000;
#X obj 421 148 bng 15 250 50 0 empty empty empty 17 7 0 10 #fcfcfc
#000000 #000000;
#X obj 443 146 bng 15 250 50 0 empty empty empty 17 7 0 10 #fcfcfc
#000000 #000000;
#X obj 472 147 bng 15 250 50 0 empty empty empty 17 7 0 10 #fcfcfc
#000000 #000000;
#X msg 418 -207 200;
#X obj 562 227 bng 15 250 50 0 empty empty empty 17 7 0 10 #fcfcfc
#000000 #000000;
#X obj 618 256 + 1;
#X floatatom 553 289 5 0 0 0 - - - 0;
#X obj 553 352 + 1;
#X obj 553 321 % 3;
#X floatatom 551 382 5 0 0 0 - - - 0;
#X obj 555 416 select 3;
#X obj 637 417 bng 15 250 50 0 empty empty empty 17 7 0 10 #fcfcfc
#000000 #000000;
#X msg 640 179 0;
#X obj 560 191 metro 100;
#X obj -642 510 vline~;
#X obj -642 531 *~;
#X obj -505 495 noise~;
#X obj -437 591 *~;
#X obj -227 504 vline~;
#X obj -227 525 *~;
#X obj -227 546 *~;
#X obj -504 570 lop~ 1200;
#X obj -457 780 *~ 0.7;
#X obj -319 390 switch~;
#X obj -319 370 tgl 15 0 empty empty empty 0 -6 0 10 #fcfcfc #000000
#000000 0 1;
#X msg -325 349 1;
#X msg -294 349 0;
#X floatatom -294 312 5 0 0 0 - - - 0;
#X obj -294 330 sel 0;
#X obj -493 365 t b b b;
#X msg -294 274 1 0 \, 0 600;
#X obj -294 293 line 1 600;
#X obj -562 641 vcf~ 30;
#X obj -433 643 vcf~ 30;
#X obj -385 643 vcf~ 30;
#X obj -494 643 vcf~ 15;
#X obj -706 572 +~ 150;
#X obj -452 681 *~ 15;
#X obj -402 681 *~ 3;
#X obj -663 572 +~ 305;
#X obj -621 572 +~ 490;
#X obj -579 572 +~ 700;
#X obj -127 675 vline~;
#X obj -128 702 *~;
#X obj 17 673 vline~;
#X obj 14 699 *~;
#X obj -159 725 *~;
#X obj -89 753 *~;
#X obj -160 631 lop~ 1000;
#X obj -90 702 hip~ 950;
#X obj -495 682 *~ 30;
#X obj -496 402 random 101;
#X obj -644 453 expr ($f1/200) + 5;
#X obj -227 442 expr ($f1/800) + 0.875;
#X msg -128 655 \$1 0 0 \, 0 50 0;
#X msg 17 653 \$1 0 0 \, 0 35 0;
#X obj -109 592 + 900;
#X obj -39 679 * 0.95;
#X obj -127 729 expr ($f1/500) + 0.4;
#X msg -227 484 \$1 0 0 \, 0 30 1;
#X obj -160 753 *~ 0.7;
#X msg -643 488 \$1 1 0 \, 0 65 1;
#X obj -541 681 *~ 25;
#X obj -492 225 bng 15 250 50 0 empty empty empty 0 -6 0 10 #fcfcfc
#000000 #000000;
#X obj -505 516 expr~ if ($v1 == 0 \, 0 \, (if ($v1 < 0 \, -1 \, 1)))
;
#X obj -505 536 *~ 0.5;
#X text -451 498 TOTAL DISTORTION;
#X obj -387 997 *~;
#X obj -48 880 vsl 15 128 0 1 0 0 empty empty empty 0 -8 0 10 #fcfcfc
#000000 #000000 0 1;
#X obj -49 837 loadbang;
#X msg -49 856 1;
#X text -321 406 audio computation on/off;
#X text -502 476 noise impulse;
#X text -682 472 frequency descends a bit;
#X text -219 468 impulse envelope;
#X text -640 642 drum head;
#X text -399 616 formants;
#X text -475 225 hit it;
#X text 554 149 Triplet Function;
#X text 387 79 Snare Line;
#X msg 403 -85 0;
#X obj 404 -108 bng 15 250 50 0 empty empty empty 17 7 0 10 #fcfcfc
#000000 #000000;
#X text 784 121 Measure 1;
#X text 788 -160 100 bpm;
#X obj 770 -131 metro 1 100 permin;
#X obj 826 -95 + 1;
#X floatatom 769 -60 5 0 0 0 - - - 0;
#X text 818 -64 modulo mathmatical function;
#X obj 769 1 + 1;
#X floatatom 1619 51 5 0 0 0 - - - 0;
#X obj 696 498 bng 15 250 50 0 empty empty empty 17 7 0 10 #fcfcfc
#000000 #000000;
#X obj 718 499 bng 15 250 50 0 empty empty empty 17 7 0 10 #fcfcfc
#000000 #000000;
#X obj 748 498 bng 15 250 50 0 empty empty empty 17 7 0 10 #fcfcfc
#000000 #000000;
#X text 804 186 Dotted half \, 16th;
#X obj 797 207 metro 1 400 permin;
#X obj 862 243 + 1;
#X floatatom 805 278 5 0 0 0 - - - 0;
#X obj 804 333 + 1;
#X floatatom 802 363 5 0 0 0 - - - 0;
#X obj 804 302 % 4;
#X obj 803 392 select 1 2 3 4;
#X obj 795 500 bng 15 250 50 0 empty empty empty 17 7 0 10 #fcfcfc
#000000 #000000;
#X obj 847 501 bng 15 250 50 0 empty empty empty 17 7 0 10 #fcfcfc
#000000 #000000;
#X text 924 127 Measure 2;
#X obj 914 501 bng 15 250 50 0 empty empty empty 17 7 0 10 #fcfcfc
#000000 #000000;
#X obj 1049 505 bng 15 250 50 0 empty empty empty 17 7 0 10 #fcfcfc
#000000 #000000;
#X obj 968 503 bng 15 250 50 0 empty empty empty 17 7 0 10 #fcfcfc
#000000 #000000;
#X text 947 189 Dotted half \, 16th;
#X obj 940 210 metro 1 400 permin;
#X obj 1005 246 + 1;
#X floatatom 948 281 5 0 0 0 - - - 0;
#X obj 947 336 + 1;
#X floatatom 945 366 5 0 0 0 - - - 0;
#X obj 947 305 % 4;
#X obj 946 395 select 1 2 3 4;
#X obj 1006 505 bng 15 250 50 0 empty empty empty 17 7 0 10 #fcfcfc
#000000 #000000;
#X obj 1096 499 bng 15 250 50 0 empty empty empty 17 7 0 10 #fcfcfc
#000000 #000000;
#X obj 1117 498 bng 15 250 50 0 empty empty empty 17 7 0 10 #fcfcfc
#000000 #000000;
#X obj 1147 497 bng 15 250 50 0 empty empty empty 17 7 0 10 #fcfcfc
#000000 #000000;
#X text 1203 185 Dotted half \, 16th;
#X obj 1196 206 metro 1 400 permin;
#X obj 1261 242 + 1;
#X floatatom 1204 277 5 0 0 0 - - - 0;
#X obj 1203 332 + 1;
#X floatatom 1201 362 5 0 0 0 - - - 0;
#X obj 1203 301 % 4;
#X obj 1202 391 select 1 2 3 4;
#X obj 1194 499 bng 15 250 50 0 empty empty empty 17 7 0 10 #fcfcfc
#000000 #000000;
#X obj 1240 503 bng 15 250 50 0 empty empty empty 17 7 0 10 #fcfcfc
#000000 #000000;
#X text 1154 133 Measure 3;
#X obj 1328 504 bng 15 250 50 0 empty empty empty 17 7 0 10 #fcfcfc
#000000 #000000;
#X obj 1463 508 bng 15 250 50 0 empty empty empty 17 7 0 10 #fcfcfc
#000000 #000000;
#X obj 1382 506 bng 15 250 50 0 empty empty empty 17 7 0 10 #fcfcfc
#000000 #000000;
#X text 1361 192 Dotted half \, 16th;
#X obj 1354 213 metro 1 400 permin;
#X obj 1419 249 + 1;
#X floatatom 1362 284 5 0 0 0 - - - 0;
#X obj 1361 339 + 1;
#X floatatom 1359 369 5 0 0 0 - - - 0;
#X obj 1361 308 % 4;
#X obj 1360 398 select 1 2 3 4;
#X obj 1422 506 bng 15 250 50 0 empty empty empty 17 7 0 10 #fcfcfc
#000000 #000000;
#X text 1338 130 Measure 4;
#X obj 1500 506 bng 15 250 50 0 empty empty empty 17 7 0 10 #fcfcfc
#000000 #000000;
#X obj 1635 510 bng 15 250 50 0 empty empty empty 17 7 0 10 #fcfcfc
#000000 #000000;
#X obj 1554 508 bng 15 250 50 0 empty empty empty 17 7 0 10 #fcfcfc
#000000 #000000;
#X text 1533 194 Dotted half \, 16th;
#X obj 1526 215 metro 1 400 permin;
#X obj 1591 251 + 1;
#X floatatom 1534 286 5 0 0 0 - - - 0;
#X obj 1533 341 + 1;
#X floatatom 1531 371 5 0 0 0 - - - 0;
#X obj 1533 310 % 4;
#X obj 1532 400 select 1 2 3 4;
#X obj 1592 510 bng 15 250 50 0 empty empty empty 17 7 0 10 #fcfcfc
#000000 #000000;
#X text 1510 132 Measure 5;
#X text 1662 194 Dotted half \, 16th;
#X obj 1655 215 metro 1 400 permin;
#X obj 1720 251 + 1;
#X floatatom 1663 286 5 0 0 0 - - - 0;
#X obj 1662 341 + 1;
#X floatatom 1660 371 5 0 0 0 - - - 0;
#X obj 1662 310 % 4;
#X obj 1661 400 select 1 2 3 4;
#X obj 1692 509 bng 15 250 50 0 empty empty empty 17 7 0 10 #fcfcfc
#000000 #000000;
#X obj 1730 511 bng 15 250 50 0 empty empty empty 17 7 0 10 #fcfcfc
#000000 #000000;
#X obj 1813 204 metro 1 400 permin;
#X obj 1878 240 + 1;
#X floatatom 1821 275 5 0 0 0 - - - 0;
#X obj 1820 330 + 1;
#X floatatom 1818 360 5 0 0 0 - - - 0;
#X obj 1819 389 select 1 2 3 4;
#X obj 1797 506 bng 15 250 50 0 empty empty empty 17 7 0 10 #fcfcfc
#000000 #000000;
#X obj 1863 512 bng 15 250 50 0 empty empty empty 17 7 0 10 #fcfcfc
#000000 #000000;
#X text 1820 183 16th \, 16th \, 8th;
#X obj 1830 511 bng 15 250 50 0 empty empty empty 17 7 0 10 #fcfcfc
#000000 #000000;
#X obj 1938 208 metro 1 400 permin;
#X obj 2003 244 + 1;
#X floatatom 1946 279 5 0 0 0 - - - 0;
#X obj 1945 334 + 1;
#X floatatom 1943 364 5 0 0 0 - - - 0;
#X obj 1944 393 select 1 2 3 4;
#X obj 1996 498 bng 15 250 50 0 empty empty empty 17 7 0 10 #fcfcfc
#000000 #000000;
#X text 1945 187 rest \, 8th;
#X obj 2042 517 bng 15 250 50 0 empty empty empty 17 7 0 10 #fcfcfc
#000000 #000000;
#X text 2072 187 Dotted half \, 16th;
#X obj 2065 208 metro 1 400 permin;
#X obj 2130 244 + 1;
#X floatatom 2073 279 5 0 0 0 - - - 0;
#X obj 2072 334 + 1;
#X floatatom 2070 364 5 0 0 0 - - - 0;
#X obj 2071 393 select 1 2 3 4;
#X obj 2102 502 bng 15 250 50 0 empty empty empty 17 7 0 10 #fcfcfc
#000000 #000000;
#X obj 2140 504 bng 15 250 50 0 empty empty empty 17 7 0 10 #fcfcfc
#000000 #000000;
#X obj 2197 211 metro 1 400 permin;
#X obj 2262 247 + 1;
#X floatatom 2205 282 5 0 0 0 - - - 0;
#X obj 2204 337 + 1;
#X floatatom 2202 367 5 0 0 0 - - - 0;
#X obj 2203 396 select 1 2 3 4;
#X obj 2181 513 bng 15 250 50 0 empty empty empty 17 7 0 10 #fcfcfc
#000000 #000000;
#X obj 2247 521 bng 15 250 50 0 empty empty empty 17 7 0 10 #fcfcfc
#000000 #000000;
#X text 2204 190 16th \, 16th \, 8th;
#X obj 2214 518 bng 15 250 50 0 empty empty empty 17 7 0 10 #fcfcfc
#000000 #000000;
#X obj 2322 215 metro 1 400 permin;
#X obj 2387 251 + 1;
#X floatatom 2330 286 5 0 0 0 - - - 0;
#X obj 2329 341 + 1;
#X floatatom 2327 371 5 0 0 0 - - - 0;
#X obj 2328 400 select 1 2 3 4;
#X obj 2371 522 bng 15 250 50 0 empty empty empty 17 7 0 10 #fcfcfc
#000000 #000000;
#X text 2329 194 rest \, 8th;
#X obj 2426 524 bng 15 250 50 0 empty empty empty 17 7 0 10 #fcfcfc
#000000 #000000;
#X text 2456 194 Dotted half \, 16th;
#X obj 2449 215 metro 1 400 permin;
#X obj 2514 251 + 1;
#X floatatom 2457 286 5 0 0 0 - - - 0;
#X obj 2456 341 + 1;
#X floatatom 2454 371 5 0 0 0 - - - 0;
#X obj 2456 310 % 4;
#X obj 2455 400 select 1 2 3 4;
#X obj 2486 509 bng 15 250 50 0 empty empty empty 17 7 0 10 #fcfcfc
#000000 #000000;
#X obj 2524 511 bng 15 250 50 0 empty empty empty 17 7 0 10 #fcfcfc
#000000 #000000;
#X obj 2578 516 bng 15 250 50 0 empty empty empty 17 7 0 10 #fcfcfc
#000000 #000000;
#X obj 2713 520 bng 15 250 50 0 empty empty empty 17 7 0 10 #fcfcfc
#000000 #000000;
#X obj 2632 518 bng 15 250 50 0 empty empty empty 17 7 0 10 #fcfcfc
#000000 #000000;
#X text 2611 204 Dotted half \, 16th;
#X obj 2604 225 metro 1 400 permin;
#X obj 2669 261 + 1;
#X floatatom 2612 296 5 0 0 0 - - - 0;
#X obj 2611 351 + 1;
#X floatatom 2609 381 5 0 0 0 - - - 0;
#X obj 2611 320 % 4;
#X obj 2610 410 select 1 2 3 4;
#X obj 2670 520 bng 15 250 50 0 empty empty empty 17 7 0 10 #fcfcfc
#000000 #000000;
#X text 1923 118 Measure 6;
#X text 2324 126 Measure 7;
#X text 2612 146 Measure 8;
#X msg 886 162 0;
#X msg 1065 176 0;
#X msg 1287 167 0;
#X msg 1462 162 0;
#X msg 1650 165 0;
#X msg 2029 142 0;
#X msg 2438 167 0;
#X msg 2707 173 0;
#X floatatom 890 624 5 0 0 0 - - - 0;
#X obj 717 658 * 1;
#X floatatom 716 681 5 0 0 0 - - - 0;
#X obj 716 701 osc~;
#X obj 723 735 *~;
#X floatatom 752 713 5 0 0 0 - - - 0;
#X floatatom 816 687 5 0 0 0 - - - 0;
#X obj 816 707 osc~;
#X obj 823 741 *~;
#X floatatom 853 716 5 0 0 0 - - - 0;
#X floatatom 895 688 5 0 0 0 - - - 0;
#X obj 895 708 osc~;
#X obj 902 742 *~;
#X floatatom 932 717 5 0 0 0 - - - 0;
#X floatatom 982 693 5 0 0 0 - - - 0;
#X obj 982 713 osc~;
#X obj 989 747 *~;
#X floatatom 1019 722 5 0 0 0 - - - 0;
#X floatatom 1067 696 5 0 0 0 - - - 0;
#X obj 1067 716 osc~;
#X obj 1074 750 *~;
#X floatatom 1104 725 5 0 0 0 - - - 0;
#X obj 879 853 *~;
#X obj 817 664 * 2;
#X obj 896 665 * 3;
#X obj 983 670 * 4;
#X obj 1068 673 * 5;
#X text 681 650 Adder;
#X obj 1902 625 mtof;
#X obj 754 660 loadbang;
#X msg 756 686 0.84;
#X msg 856 685 0.69;
#X msg 934 688 0.47;
#X msg 1027 695 0.61;
#X msg 1107 698 0.35;
#X text 684 485 G;
#X msg 701 533 43;
#X msg 791 526 39;
#X text 1651 715 1/4;
#X text 780 486 Eb;
#X text 831 487 Bb;
#X text 900 487 G;
#X text 1775 720 1/8;
#X text 1887 723 3/16;
#X obj 1025 843 vline~;
#X text 1512 718 1/2;
#X text 2010 723 1/16;
#X msg 851 531 45;
#X msg 1773 740 1 50 \, 0 50 300;
#X msg 1648 738 1 50 \, 0 50 500;
#X msg 913 531 43;
#X text 951 488 Eb;
#X text 994 492 Bb;
#X msg 965 531 39;
#X msg 1011 531 45;
#X text 1036 490 G;
#X msg 1049 531 43;
#X text 1089 483 D;
#X text 1178 480 Eb;
#X text 1225 485 Bb;
#X msg 1101 531 50;
#X text 1310 486 Gb;
#X text 1364 494 Eb;
#X text 1404 489 Bb;
#X text 1448 492 G;
#X text 1489 492 G;
#X text 1539 496 G;
#X text 1579 496 G;
#X text 1620 496 G;
#X text 1679 496 Gb;
#X text 1713 498 F;
#X text 1780 491 E;
#X text 1817 490 D#;
#X text 1853 498 E, f 11;
#X text 1968 505 G#;
#X text 2026 501 C#;
#X text 2080 496 B#;
#X text 2118 486 B;
#X text 2168 495 Bb;
#X text 2197 500 A;
#X text 2233 503 Bb;
#X text 2350 510 Eb;
#X text 2463 493 Eb;
#X text 2499 489 Bb;
#X text 2404 510 Gb;
#X text 2611 502 Eb;
#X text 2653 501 Bb;
#X text 2556 512 G;
#X text 2695 507 G;
#X msg 1241 531 45;
#X msg 1324 532 42;
#X msg 1384 533 39;
#X msg 1420 534 45;
#X msg 1465 535 43;
#X msg 1499 532 55;
#X msg 1549 534 43;
#X msg 1593 536 43;
#X msg 1634 534 55;
#X msg 1691 539 54;
#X msg 1742 540 53;
#X msg 1790 539 52;
#X msg 1828 537 51;
#X msg 1863 537 52;
#X msg 1973 544 44;
#X msg 2036 553 49;
#X msg 2084 552 48;
#X msg 2140 555 47;
#X msg 2181 557 46;
#X msg 2216 555 45;
#X msg 2252 554 46;
#X msg 2370 561 39;
#X msg 2426 566 42;
#X msg 2485 566 39;
#X msg 2530 567 46;
#X msg 2629 571 39;
#X msg 2674 565 46;
#X msg 1480 738 1 50 \, 0 100 1000;
#X msg 1891 743 1 50 \, 0 50 400;
#X msg 2010 744 1 10 \, 0 50 90;
#X obj 1820 299 % 3;
#X obj 2072 303 % 4;
#X obj 2204 306 % 3;
#X obj 1945 303 % 3;
#X obj 2329 310 % 3;
#X msg 2573 566 43;
#X msg 2714 570 43;
#X obj 769 -31 % 40;
#X text -50 814 Hit volume;
#X text 179 856 Snare Volume;
#X obj 182 873 loadbang;
#X obj 331 1081 *~;
#X obj 350 924 vsl 15 128 0 1 0 0 empty empty empty 0 -9 0 10 #fcfcfc
#000000 #000000 0 1;
#X obj 351 867 loadbang;
#X text 395 973 Melody;
#X text 181 -187 ON/OFF;
#X obj 743 156 select 9 10 11 12;
#X obj 922 158 select 13 14 15 16;
#X obj 1142 155 select 17 18 19 20;
#X obj 1336 161 select 21 22 23 24;
#X obj 1508 163 select 25 26 27 28;
#X obj 1907 156 select 29 30 31 32;
#X obj 2278 158 select 33 34 35 36;
#X obj 2586 173 select 37 38 39 40;
#X obj 245 1141 dac~;
#X obj 848 264 loadbang;
#X obj 864 160 bng 15 250 50 0 empty empty empty 17 7 0 10 #fcfcfc
#000000 #000000;
#X msg 847 286 4;
#X obj 801 241 int 0;
#X obj 944 244 int 0;
#X obj 1200 240 int 0;
#X obj 1358 247 int 0;
#X obj 1530 249 int 0;
#X obj 1659 249 int 0;
#X obj 1817 238 int 0;
#X obj 1942 242 int 0;
#X obj 2069 242 int 0;
#X obj 2201 245 int 0;
#X obj 351 -60 int 0;
#X obj 2326 249 int 0;
#X obj 2453 249 int 0;
#X obj 2608 259 int 0;
#X obj 557 254 int 0;
#X obj 765 -97 int 0;
#X obj 425 36 loadbang;
#X msg 405 59 7;
#X msg 351 886 0.3;
#X msg 1187 532 51;
#X msg 182 892 0.1;
#X obj -409 780 *~ 0.7;
#X connect 0 0 2 0;
#X connect 1 0 2 1;
#X connect 2 0 3 0;
#X connect 3 0 416 0;
#X connect 3 0 416 1;
#X connect 4 0 3 1;
#X connect 5 0 1 0;
#X connect 6 0 5 0;
#X connect 6 0 90 0;
#X connect 7 0 22 0;
#X connect 7 0 111 0;
#X connect 8 0 20 0;
#X connect 9 0 430 0;
#X connect 10 0 30 0;
#X connect 10 0 7 0;
#X connect 11 0 430 1;
#X connect 12 0 24 0;
#X connect 13 0 25 0;
#X connect 18 0 6 0;
#X connect 19 0 40 0;
#X connect 20 0 22 0;
#X connect 21 0 6 0;
#X connect 22 0 9 0;
#X connect 23 0 13 0;
#X connect 24 0 23 0;
#X connect 25 0 21 0;
#X connect 25 1 17 0;
#X connect 25 2 18 0;
#X connect 25 3 19 0;
#X connect 25 4 26 0;
#X connect 25 5 27 0;
#X connect 25 6 28 0;
#X connect 25 7 29 0;
#X connect 26 0 6 0;
#X connect 27 0 40 0;
#X connect 28 0 40 0;
#X connect 29 0 6 0;
#X connect 30 0 8 0;
#X connect 31 0 434 0;
#X connect 32 0 434 1;
#X connect 33 0 35 0;
#X connect 34 0 36 0;
#X connect 35 0 34 0;
#X connect 36 0 37 0;
#X connect 37 0 38 0;
#X connect 38 0 39 0;
#X connect 39 0 40 0;
#X connect 40 0 31 0;
#X connect 40 0 6 0;
#X connect 41 0 42 0;
#X connect 41 0 42 1;
#X connect 42 0 63 0;
#X connect 42 0 66 0;
#X connect 42 0 67 0;
#X connect 42 0 68 0;
#X connect 43 0 91 0;
#X connect 44 0 59 0;
#X connect 44 0 60 0;
#X connect 44 0 61 0;
#X connect 44 0 62 0;
#X connect 45 0 46 0;
#X connect 45 0 46 1;
#X connect 46 0 47 0;
#X connect 46 0 47 1;
#X connect 47 0 44 0;
#X connect 48 0 44 1;
#X connect 49 0 94 0;
#X connect 51 0 50 0;
#X connect 52 0 51 0;
#X connect 53 0 51 0;
#X connect 54 0 55 0;
#X connect 55 0 53 0;
#X connect 56 0 57 0;
#X connect 56 1 78 0;
#X connect 56 2 52 0;
#X connect 57 0 58 0;
#X connect 58 0 54 0;
#X connect 59 0 89 0;
#X connect 60 0 64 0;
#X connect 61 0 65 0;
#X connect 62 0 77 0;
#X connect 63 0 59 1;
#X connect 64 0 49 0;
#X connect 65 0 49 0;
#X connect 66 0 62 1;
#X connect 67 0 60 1;
#X connect 68 0 61 1;
#X connect 69 0 70 0;
#X connect 69 0 70 1;
#X connect 70 0 73 1;
#X connect 71 0 72 0;
#X connect 71 0 72 1;
#X connect 72 0 74 1;
#X connect 73 0 87 0;
#X connect 74 0 441 0;
#X connect 75 0 73 0;
#X connect 75 0 76 0;
#X connect 76 0 74 0;
#X connect 77 0 49 0;
#X connect 78 0 79 0;
#X connect 78 0 80 0;
#X connect 78 0 83 0;
#X connect 78 0 85 0;
#X connect 79 0 88 0;
#X connect 80 0 86 0;
#X connect 80 0 81 0;
#X connect 80 0 82 0;
#X connect 81 0 69 0;
#X connect 82 0 71 0;
#X connect 83 0 84 0;
#X connect 83 0 75 1;
#X connect 84 0 76 1;
#X connect 85 0 87 1;
#X connect 86 0 45 0;
#X connect 87 0 441 0;
#X connect 88 0 41 0;
#X connect 89 0 49 0;
#X connect 90 0 56 0;
#X connect 91 0 92 0;
#X connect 92 0 75 0;
#X connect 92 0 48 0;
#X connect 94 0 416 0;
#X connect 94 0 416 1;
#X connect 95 0 94 1;
#X connect 96 0 97 0;
#X connect 97 0 95 0;
#X connect 107 0 430 1;
#X connect 108 0 107 0;
#X connect 111 0 435 0;
#X connect 112 0 435 1;
#X connect 113 0 399 0;
#X connect 115 0 116 0;
#X connect 116 0 408 0;
#X connect 116 0 409 0;
#X connect 116 0 410 0;
#X connect 116 0 411 0;
#X connect 116 0 412 0;
#X connect 116 0 413 0;
#X connect 116 0 414 0;
#X connect 116 0 415 0;
#X connect 117 0 309 0;
#X connect 118 0 309 0;
#X connect 119 0 309 0;
#X connect 121 0 420 0;
#X connect 122 0 420 1;
#X connect 123 0 126 0;
#X connect 124 0 125 0;
#X connect 125 0 127 0;
#X connect 126 0 124 0;
#X connect 127 0 128 0;
#X connect 127 3 129 0;
#X connect 128 0 310 0;
#X connect 129 0 265 0;
#X connect 129 0 320 0;
#X connect 131 0 323 0;
#X connect 132 0 329 0;
#X connect 133 0 326 0;
#X connect 135 0 421 0;
#X connect 136 0 421 1;
#X connect 137 0 140 0;
#X connect 138 0 139 0;
#X connect 139 0 141 0;
#X connect 140 0 138 0;
#X connect 141 0 133 0;
#X connect 141 3 142 0;
#X connect 142 0 266 0;
#X connect 142 0 327 0;
#X connect 143 0 333 0;
#X connect 144 0 333 0;
#X connect 145 0 333 0;
#X connect 147 0 422 0;
#X connect 148 0 422 1;
#X connect 149 0 152 0;
#X connect 150 0 151 0;
#X connect 151 0 153 0;
#X connect 152 0 150 0;
#X connect 153 0 154 0;
#X connect 153 3 155 0;
#X connect 154 0 439 0;
#X connect 155 0 267 0;
#X connect 155 0 362 0;
#X connect 157 0 363 0;
#X connect 158 0 366 0;
#X connect 159 0 364 0;
#X connect 161 0 423 0;
#X connect 162 0 423 1;
#X connect 163 0 166 0;
#X connect 164 0 165 0;
#X connect 165 0 167 0;
#X connect 166 0 164 0;
#X connect 167 0 159 0;
#X connect 167 3 168 0;
#X connect 168 0 268 0;
#X connect 168 0 365 0;
#X connect 170 0 367 0;
#X connect 171 0 370 0;
#X connect 172 0 368 0;
#X connect 174 0 424 0;
#X connect 175 0 424 1;
#X connect 176 0 179 0;
#X connect 177 0 178 0;
#X connect 178 0 180 0;
#X connect 179 0 177 0;
#X connect 180 0 172 0;
#X connect 180 3 181 0;
#X connect 181 0 269 0;
#X connect 181 0 369 0;
#X connect 184 0 425 0;
#X connect 185 0 425 1;
#X connect 186 0 189 0;
#X connect 187 0 188 0;
#X connect 188 0 190 0;
#X connect 189 0 187 0;
#X connect 190 0 191 0;
#X connect 190 3 192 0;
#X connect 191 0 371 0;
#X connect 192 0 269 0;
#X connect 192 0 372 0;
#X connect 193 0 426 0;
#X connect 194 0 426 1;
#X connect 195 0 392 0;
#X connect 196 0 197 0;
#X connect 197 0 198 0;
#X connect 198 0 199 0;
#X connect 198 1 202 0;
#X connect 198 2 200 0;
#X connect 199 0 373 0;
#X connect 200 0 270 0;
#X connect 200 0 375 0;
#X connect 202 0 374 0;
#X connect 203 0 427 0;
#X connect 204 0 427 1;
#X connect 205 0 395 0;
#X connect 206 0 207 0;
#X connect 207 0 208 0;
#X connect 208 2 209 0;
#X connect 209 0 270 0;
#X connect 209 0 376 0;
#X connect 211 0 377 0;
#X connect 213 0 428 0;
#X connect 214 0 428 1;
#X connect 215 0 393 0;
#X connect 216 0 217 0;
#X connect 217 0 218 0;
#X connect 218 0 219 0;
#X connect 218 3 220 0;
#X connect 219 0 378 0;
#X connect 220 0 270 0;
#X connect 220 0 379 0;
#X connect 221 0 429 0;
#X connect 222 0 429 1;
#X connect 223 0 394 0;
#X connect 224 0 225 0;
#X connect 225 0 226 0;
#X connect 226 0 227 0;
#X connect 226 1 230 0;
#X connect 226 2 228 0;
#X connect 227 0 380 0;
#X connect 228 0 271 0;
#X connect 228 0 382 0;
#X connect 230 0 381 0;
#X connect 231 0 431 0;
#X connect 232 0 431 1;
#X connect 233 0 396 0;
#X connect 234 0 235 0;
#X connect 235 0 236 0;
#X connect 236 2 237 0;
#X connect 237 0 271 0;
#X connect 237 0 383 0;
#X connect 239 0 384 0;
#X connect 241 0 432 0;
#X connect 242 0 432 1;
#X connect 243 0 246 0;
#X connect 244 0 245 0;
#X connect 245 0 247 0;
#X connect 246 0 244 0;
#X connect 247 0 248 0;
#X connect 247 3 249 0;
#X connect 248 0 385 0;
#X connect 249 0 271 0;
#X connect 249 0 386 0;
#X connect 250 0 397 0;
#X connect 251 0 398 0;
#X connect 252 0 387 0;
#X connect 254 0 433 0;
#X connect 255 0 433 1;
#X connect 256 0 259 0;
#X connect 257 0 258 0;
#X connect 258 0 260 0;
#X connect 259 0 257 0;
#X connect 260 0 252 0;
#X connect 260 1 252 0;
#X connect 260 2 252 0;
#X connect 260 3 261 0;
#X connect 261 0 272 0;
#X connect 261 0 388 0;
#X connect 265 0 121 0;
#X connect 266 0 135 0;
#X connect 267 0 147 0;
#X connect 268 0 161 0;
#X connect 269 0 174 0;
#X connect 269 0 184 0;
#X connect 270 0 193 0;
#X connect 270 0 203 0;
#X connect 270 0 213 0;
#X connect 271 0 221 0;
#X connect 271 0 231 0;
#X connect 271 0 241 0;
#X connect 272 0 254 0;
#X connect 273 0 274 0;
#X connect 273 0 296 0;
#X connect 273 0 297 0;
#X connect 273 0 298 0;
#X connect 273 0 299 0;
#X connect 274 0 275 0;
#X connect 275 0 276 0;
#X connect 276 0 277 0;
#X connect 277 0 295 0;
#X connect 278 0 277 1;
#X connect 279 0 280 0;
#X connect 280 0 281 0;
#X connect 281 0 295 0;
#X connect 282 0 281 1;
#X connect 283 0 284 0;
#X connect 284 0 285 0;
#X connect 285 0 295 0;
#X connect 286 0 285 1;
#X connect 287 0 288 0;
#X connect 288 0 289 0;
#X connect 289 0 295 0;
#X connect 290 0 289 1;
#X connect 291 0 292 0;
#X connect 292 0 293 0;
#X connect 293 0 295 0;
#X connect 294 0 293 1;
#X connect 295 0 403 0;
#X connect 296 0 279 0;
#X connect 297 0 283 0;
#X connect 298 0 287 0;
#X connect 299 0 291 0;
#X connect 301 0 273 0;
#X connect 302 0 303 0;
#X connect 302 0 304 0;
#X connect 302 0 305 0;
#X connect 302 0 306 0;
#X connect 302 0 307 0;
#X connect 303 0 278 0;
#X connect 304 0 282 0;
#X connect 305 0 286 0;
#X connect 306 0 290 0;
#X connect 307 0 294 0;
#X connect 309 0 301 0;
#X connect 309 0 322 0;
#X connect 310 0 390 0;
#X connect 310 0 301 0;
#X connect 317 0 295 1;
#X connect 320 0 391 0;
#X connect 320 0 301 0;
#X connect 321 0 317 0;
#X connect 322 0 317 0;
#X connect 323 0 301 0;
#X connect 323 0 322 0;
#X connect 326 0 301 0;
#X connect 326 0 390 0;
#X connect 327 0 301 0;
#X connect 327 0 391 0;
#X connect 329 0 389 0;
#X connect 329 0 301 0;
#X connect 333 0 322 0;
#X connect 333 0 301 0;
#X connect 362 0 391 0;
#X connect 362 0 301 0;
#X connect 363 0 301 0;
#X connect 363 0 322 0;
#X connect 364 0 390 0;
#X connect 364 0 301 0;
#X connect 365 0 301 0;
#X connect 365 0 391 0;
#X connect 366 0 389 0;
#X connect 366 0 301 0;
#X connect 367 0 322 0;
#X connect 367 0 301 0;
#X connect 368 0 301 0;
#X connect 368 0 390 0;
#X connect 369 0 301 0;
#X connect 369 0 391 0;
#X connect 370 0 301 0;
#X connect 370 0 322 0;
#X connect 371 0 390 0;
#X connect 371 0 301 0;
#X connect 372 0 391 0;
#X connect 372 0 301 0;
#X connect 373 0 301 0;
#X connect 373 0 391 0;
#X connect 374 0 391 0;
#X connect 374 0 301 0;
#X connect 375 0 301 0;
#X connect 375 0 321 0;
#X connect 376 0 321 0;
#X connect 376 0 301 0;
#X connect 377 0 321 0;
#X connect 377 0 301 0;
#X connect 378 0 390 0;
#X connect 378 0 301 0;
#X connect 379 0 391 0;
#X connect 379 0 301 0;
#X connect 380 0 391 0;
#X connect 380 0 301 0;
#X connect 381 0 391 0;
#X connect 381 0 301 0;
#X connect 382 0 301 0;
#X connect 382 0 321 0;
#X connect 383 0 321 0;
#X connect 383 0 301 0;
#X connect 384 0 322 0;
#X connect 384 0 301 0;
#X connect 385 0 390 0;
#X connect 385 0 301 0;
#X connect 386 0 391 0;
#X connect 386 0 301 0;
#X connect 387 0 390 0;
#X connect 387 0 301 0;
#X connect 388 0 391 0;
#X connect 388 0 301 0;
#X connect 389 0 317 0;
#X connect 390 0 317 0;
#X connect 391 0 317 0;
#X connect 392 0 196 0;
#X connect 393 0 216 0;
#X connect 394 0 224 0;
#X connect 395 0 206 0;
#X connect 396 0 234 0;
#X connect 397 0 322 0;
#X connect 397 0 301 0;
#X connect 398 0 389 0;
#X connect 398 0 301 0;
#X connect 399 0 115 0;
#X connect 402 0 440 0;
#X connect 403 0 416 0;
#X connect 403 0 416 1;
#X connect 404 0 403 1;
#X connect 405 0 438 0;
#X connect 408 0 117 0;
#X connect 408 1 118 0;
#X connect 408 2 119 0;
#X connect 408 3 121 0;
#X connect 409 0 131 0;
#X connect 409 1 135 0;
#X connect 409 2 132 0;
#X connect 410 0 143 0;
#X connect 410 1 144 0;
#X connect 410 2 145 0;
#X connect 410 3 147 0;
#X connect 411 0 157 0;
#X connect 411 1 161 0;
#X connect 411 2 158 0;
#X connect 412 0 170 0;
#X connect 412 1 174 0;
#X connect 412 2 171 0;
#X connect 412 3 184 0;
#X connect 413 0 193 0;
#X connect 413 1 203 0;
#X connect 413 2 211 0;
#X connect 413 3 213 0;
#X connect 414 0 221 0;
#X connect 414 1 231 0;
#X connect 414 2 239 0;
#X connect 414 3 241 0;
#X connect 415 0 250 0;
#X connect 415 1 254 0;
#X connect 415 2 251 0;
#X connect 417 0 419 0;
#X connect 418 0 420 0;
#X connect 419 0 123 0;
#X connect 420 0 122 0;
#X connect 420 0 123 0;
#X connect 421 0 136 0;
#X connect 421 0 137 0;
#X connect 422 0 148 0;
#X connect 422 0 149 0;
#X connect 423 0 162 0;
#X connect 423 0 163 0;
#X connect 424 0 175 0;
#X connect 424 0 176 0;
#X connect 425 0 185 0;
#X connect 425 0 186 0;
#X connect 426 0 194 0;
#X connect 426 0 195 0;
#X connect 427 0 204 0;
#X connect 427 0 205 0;
#X connect 428 0 214 0;
#X connect 428 0 215 0;
#X connect 429 0 222 0;
#X connect 429 0 223 0;
#X connect 430 0 11 0;
#X connect 430 0 12 0;
#X connect 431 0 232 0;
#X connect 431 0 233 0;
#X connect 432 0 242 0;
#X connect 432 0 243 0;
#X connect 433 0 255 0;
#X connect 433 0 256 0;
#X connect 434 0 32 0;
#X connect 434 0 33 0;
#X connect 435 0 112 0;
#X connect 435 0 113 0;
#X connect 436 0 437 0;
#X connect 437 0 13 0;
#X connect 438 0 404 0;
#X connect 439 0 301 0;
#X connect 439 0 390 0;
#X connect 440 0 4 0;
#X connect 441 0 94 0;
